<svg width="14" height="14" viewBox="0 0 14 14" fill="none" xmlns="http://www.w3.org/2000/svg">
<path d="M6.99999 1.16667C3.77999 1.16667 1.16666 3.78 1.16666 7C1.16666 10.22 3.77999 12.8333 6.99999 12.8333C10.22 12.8333 12.8333 10.22 12.8333 7C12.8333 3.78 10.22 1.16667 6.99999 1.16667ZM5.41916 9.50251L3.32499 7.40834C3.27098 7.35433 3.22814 7.29022 3.19892 7.21966C3.16969 7.14909 3.15464 7.07346 3.15464 6.99709C3.15464 6.92071 3.16969 6.84508 3.19892 6.77452C3.22814 6.70396 3.27098 6.63984 3.32499 6.58584C3.379 6.53183 3.44311 6.48899 3.51367 6.45976C3.58424 6.43054 3.65986 6.41549 3.73624 6.41549C3.81262 6.41549 3.88824 6.43054 3.95881 6.45976C4.02937 6.48899 4.09348 6.53183 4.14749 6.58584L5.83332 8.26584L9.84666 4.25251C9.95573 4.14343 10.1037 4.08216 10.2579 4.08216C10.4122 4.08216 10.5601 4.14343 10.6692 4.25251C10.7782 4.36158 10.8395 4.50951 10.8395 4.66375C10.8395 4.818 10.7782 4.96593 10.6692 5.075L6.24166 9.50251C6.18769 9.55658 6.12359 9.59949 6.05302 9.62876C5.98245 9.65803 5.9068 9.6731 5.83041 9.6731C5.75401 9.6731 5.67836 9.65803 5.60779 9.62876C5.53722 9.59949 5.47312 9.55658 5.41916 9.50251Z" fill="#888888"/>
</svg>
